<svg width="146" height="28" viewBox="0 0 146 28" fill="none" xmlns="http://www.w3.org/2000/svg">
<rect width="146" height="28" fill="white"/>
<path d="M1.1 6H3.26V20H1.1V6ZM11.58 6L2.48 17.46L1.84 14.9L8.9 6H11.58ZM6.16 11.34L11.94 20H9.2L4.94 13.22L6.16 11.34ZM13.4223 5H15.5623V20H13.4223V5ZM15.5623 14.42L15.2423 12.22C15.2423 11.8733 15.3023 11.4867 15.4223 11.06C15.5423 10.6333 15.749 10.2267 16.0423 9.84C16.349 9.44 16.7623 9.11333 17.2823 8.86C17.8023 8.60667 18.4623 8.48 19.2623 8.48C19.9823 8.48 20.6223 8.62667 21.1823 8.92C21.7557 9.21333 22.2023 9.7 22.5223 10.38C22.8557 11.0467 23.0223 11.9533 23.0223 13.1V20H20.8823V13.36C20.8823 12.7467 20.8223 12.22 20.7023 11.78C20.5823 11.3267 20.3623 10.98 20.0423 10.74C19.7223 10.4867 19.2757 10.36 18.7023 10.36C18.169 10.36 17.6623 10.5133 17.1823 10.82C16.7023 11.1267 16.309 11.58 16.0023 12.18C15.709 12.78 15.5623 13.5267 15.5623 14.42ZM28.8648 20.32C28.1315 20.32 27.4715 20.1867 26.8848 19.92C26.2982 19.64 25.8315 19.24 25.4848 18.72C25.1515 18.2 24.9848 17.5667 24.9848 16.82C24.9848 15.94 25.1982 15.2467 25.6248 14.74C26.0515 14.2333 26.6182 13.86 27.3248 13.62C28.0315 13.38 28.7982 13.2267 29.6248 13.16C30.4648 13.08 31.2915 13.0467 32.1048 13.06V14.84C30.4382 14.7867 29.2115 14.9267 28.4248 15.26C27.6382 15.58 27.2448 16.0733 27.2448 16.74C27.2448 17.3133 27.4248 17.74 27.7848 18.02C28.1582 18.2867 28.6715 18.42 29.3248 18.42C29.8582 18.42 30.3315 18.3133 30.7448 18.1C31.1715 17.8733 31.5048 17.5467 31.7448 17.12C31.9848 16.6933 32.1048 16.18 32.1048 15.58V14.24H34.2448V20H32.1048V18.76C31.7715 19.2533 31.3315 19.64 30.7848 19.92C30.2382 20.1867 29.5982 20.32 28.8648 20.32ZM24.7248 12.94C24.7248 12.18 24.9115 11.46 25.2848 10.78C25.6582 10.1 26.2115 9.54667 26.9448 9.12C27.6782 8.69333 28.5648 8.48 29.6048 8.48C31.0448 8.48 32.1515 8.89333 32.9248 9.72C33.6982 10.5333 34.1315 11.6467 34.2248 13.06H32.1048C32.0515 12.2467 31.8315 11.6133 31.4448 11.16C31.0715 10.6933 30.4582 10.46 29.6048 10.46C28.9648 10.46 28.4515 10.5733 28.0648 10.8C27.6915 11.0267 27.4182 11.3333 27.2448 11.72C27.0715 12.0933 26.9848 12.5 26.9848 12.94H24.7248ZM36.1558 8.8H38.2958V10.64C38.4558 10.2667 38.6891 9.92 38.9958 9.6C39.3024 9.26667 39.7024 9 40.1958 8.8C40.6891 8.58667 41.2891 8.48 41.9958 8.48C42.7158 8.48 43.3558 8.62667 43.9158 8.92C44.4891 9.21333 44.9358 9.7 45.2558 10.38C45.5891 11.0467 45.7558 11.9533 45.7558 13.1V20H43.6158V13.36C43.6158 12.7467 43.5558 12.22 43.4358 11.78C43.3158 11.3267 43.0958 10.98 42.7758 10.74C42.4558 10.4867 42.0091 10.36 41.4358 10.36C40.9024 10.36 40.3958 10.5133 39.9158 10.82C39.4358 11.1267 39.0424 11.58 38.7358 12.18C38.4424 12.78 38.2958 13.5267 38.2958 14.42V20H36.1558V8.8ZM52.3578 19.92C51.3311 19.92 50.4378 19.6867 49.6778 19.22C48.9311 18.7533 48.3511 18.0933 47.9378 17.24C47.5245 16.3733 47.3178 15.3667 47.3178 14.22C47.3178 13.06 47.5245 12.0533 47.9378 11.2C48.3511 10.3333 48.9311 9.66667 49.6778 9.2C50.4378 8.72 51.3311 8.48 52.3578 8.48C53.7311 8.48 54.7711 8.89333 55.4778 9.72C56.1845 10.5333 56.6178 11.66 56.7778 13.1L56.7378 15.38C56.6578 16.2733 56.4578 17.06 56.1378 17.74C55.8178 18.42 55.3511 18.9533 54.7378 19.34C54.1245 19.7267 53.3311 19.92 52.3578 19.92ZM53.1378 24.32C51.9511 24.32 50.9911 24.1333 50.2578 23.76C49.5245 23.3867 48.9711 22.9 48.5978 22.3C48.2378 21.7133 48.0045 21.1067 47.8978 20.48H50.1178C50.2511 21.1333 50.5778 21.6067 51.0978 21.9C51.6178 22.2067 52.2978 22.36 53.1378 22.36C53.7111 22.36 54.2045 22.26 54.6178 22.06C55.0445 21.86 55.3711 21.54 55.5978 21.1C55.8378 20.6733 55.9578 20.1067 55.9578 19.4H58.0978C58.0978 20.4533 57.8845 21.3467 57.4578 22.08C57.0311 22.8133 56.4445 23.3667 55.6978 23.74C54.9645 24.1267 54.1111 24.32 53.1378 24.32ZM52.6378 17.96C53.7578 17.96 54.5911 17.62 55.1378 16.94C55.6845 16.26 55.9578 15.3533 55.9578 14.22C55.9578 13.0733 55.6845 12.16 55.1378 11.48C54.5911 10.7867 53.7578 10.44 52.6378 10.44C51.6778 10.44 50.9178 10.7733 50.3578 11.44C49.7978 12.0933 49.5178 13.02 49.5178 14.22C49.5178 15.4067 49.7978 16.3267 50.3578 16.98C50.9178 17.6333 51.6778 17.96 52.6378 17.96ZM55.9578 19.4V8.8H58.0978V19.4H55.9578ZM72.1636 20L64.9836 6H67.4036L74.5636 20H72.1636ZM64.2836 6H66.3636V20H64.2836V6ZM73.1836 6H75.2836V20H73.1836V6ZM82.0063 19.92C80.9796 19.92 80.0863 19.6867 79.3263 19.22C78.5796 18.7533 77.9996 18.0933 77.5863 17.24C77.1729 16.3733 76.9663 15.3667 76.9663 14.22C76.9663 13.06 77.1729 12.0533 77.5863 11.2C77.9996 10.3333 78.5796 9.66667 79.3263 9.2C80.0863 8.72 80.9796 8.48 82.0063 8.48C83.3796 8.48 84.4196 8.89333 85.1263 9.72C85.8329 10.5333 86.2663 11.66 86.4263 13.1L86.3863 15.38C86.3063 16.2733 86.1063 17.06 85.7863 17.74C85.4663 18.42 84.9996 18.9533 84.3863 19.34C83.7729 19.7267 82.9796 19.92 82.0063 19.92ZM82.7863 24.32C81.5996 24.32 80.6396 24.1333 79.9063 23.76C79.1729 23.3867 78.6196 22.9 78.2463 22.3C77.8863 21.7133 77.6529 21.1067 77.5463 20.48H79.7663C79.8996 21.1333 80.2263 21.6067 80.7463 21.9C81.2663 22.2067 81.9463 22.36 82.7863 22.36C83.3596 22.36 83.8529 22.26 84.2663 22.06C84.6929 21.86 85.0196 21.54 85.2463 21.1C85.4863 20.6733 85.6063 20.1067 85.6063 19.4H87.7463C87.7463 20.4533 87.5329 21.3467 87.1063 22.08C86.6796 22.8133 86.0929 23.3667 85.3463 23.74C84.6129 24.1267 83.7596 24.32 82.7863 24.32ZM82.2862 17.96C83.4063 17.96 84.2396 17.62 84.7863 16.94C85.3329 16.26 85.6063 15.3533 85.6063 14.22C85.6063 13.0733 85.3329 12.16 84.7863 11.48C84.2396 10.7867 83.4063 10.44 82.2862 10.44C81.3263 10.44 80.5663 10.7733 80.0063 11.44C79.4463 12.0933 79.1663 13.02 79.1663 14.22C79.1663 15.4067 79.4463 16.3267 80.0063 16.98C80.5663 17.6333 81.3263 17.96 82.2862 17.96ZM85.6063 19.4V8.8H87.7463V19.4H85.6063ZM99.3095 20H97.1695V8.8H99.3095V20ZM97.1695 14.38L97.4895 16.58C97.4895 16.9267 97.4295 17.3133 97.3095 17.74C97.1895 18.1667 96.9762 18.58 96.6695 18.98C96.3762 19.3667 95.9695 19.6867 95.4495 19.94C94.9295 20.1933 94.2695 20.32 93.4695 20.32C92.7495 20.32 92.1029 20.1733 91.5295 19.88C90.9695 19.5867 90.5229 19.1 90.1895 18.42C89.8695 17.74 89.7095 16.8333 89.7095 15.7V8.8H91.8495V15.44C91.8495 16.0533 91.9095 16.5867 92.0295 17.04C92.1495 17.48 92.3629 17.8267 92.6695 18.08C92.9895 18.32 93.4362 18.44 94.0095 18.44C94.5562 18.44 95.0695 18.2867 95.5495 17.98C96.0295 17.6733 96.4162 17.22 96.7095 16.62C97.0162 16.0067 97.1695 15.26 97.1695 14.38ZM105.312 20L108.652 8.8H110.972L107.372 20H105.312ZM101.792 24V22.16H104.512L105.572 19.04H107.672L106.072 24H101.792ZM104.372 20L100.772 8.8H103.092L106.412 20H104.372ZM113.66 15.12V13.32H121L120.12 13.94C120.147 13.3 120.047 12.72 119.82 12.2C119.607 11.6667 119.273 11.24 118.82 10.92C118.367 10.6 117.793 10.44 117.1 10.44C116.127 10.44 115.32 10.74 114.68 11.34C114.053 11.9267 113.713 12.7467 113.66 13.8H111.4C111.493 12.6933 111.793 11.7467 112.3 10.96C112.82 10.16 113.493 9.54667 114.32 9.12C115.147 8.69333 116.073 8.48 117.1 8.48C117.86 8.48 118.573 8.62667 119.24 8.92C119.907 9.21333 120.48 9.64667 120.96 10.22C121.44 10.7933 121.793 11.4933 122.02 12.32C122.26 13.1333 122.327 14.0667 122.22 15.12H113.66ZM117.1 20.32C116.033 20.32 115.087 20.1 114.26 19.66C113.447 19.22 112.793 18.6133 112.3 17.84C111.807 17.0533 111.513 16.1467 111.42 15.12H113.66C113.767 16.08 114.1 16.86 114.66 17.46C115.233 18.06 116.047 18.36 117.1 18.36C117.887 18.36 118.507 18.18 118.96 17.82C119.427 17.4467 119.753 16.9933 119.94 16.46H122.22C122.033 17.2333 121.713 17.9067 121.26 18.48C120.807 19.0533 120.227 19.5067 119.52 19.84C118.813 20.16 118.007 20.32 117.1 20.32ZM117.96 4.7L119.96 7.4H117.88L116.32 5.28H117.32L115.76 7.4H113.68L115.68 4.7H117.96ZM115.763 2.48C115.576 2.48 115.436 2.54667 115.343 2.68C115.25 2.8 115.203 2.97333 115.203 3.2H113.603C113.603 2.61333 113.703 2.14667 113.903 1.8C114.103 1.45333 114.35 1.21333 114.643 1.08C114.936 0.933333 115.216 0.859999 115.483 0.859999C115.883 0.859999 116.216 0.933333 116.483 1.08C116.763 1.22667 117.01 1.38 117.223 1.54C117.436 1.68667 117.663 1.76 117.903 1.76C118.09 1.76 118.223 1.7 118.303 1.58C118.383 1.44667 118.423 1.26667 118.423 1.04H120.023C120.023 1.62667 119.923 2.1 119.723 2.46C119.523 2.80667 119.283 3.05333 119.003 3.2C118.723 3.34667 118.45 3.42 118.183 3.42C117.81 3.42 117.483 3.34667 117.203 3.2C116.936 3.04 116.69 2.88 116.463 2.72C116.236 2.56 116.003 2.48 115.763 2.48ZM123.851 8.8H125.991V10.64C126.151 10.2667 126.384 9.92 126.691 9.6C126.998 9.26667 127.398 9 127.891 8.8C128.384 8.58667 128.984 8.48 129.691 8.48C130.411 8.48 131.051 8.62667 131.611 8.92C132.184 9.21333 132.631 9.7 132.951 10.38C133.284 11.0467 133.451 11.9533 133.451 13.1V20H131.311V13.36C131.311 12.7467 131.251 12.22 131.131 11.78C131.011 11.3267 130.791 10.98 130.471 10.74C130.151 10.4867 129.704 10.36 129.131 10.36C128.598 10.36 128.091 10.5133 127.611 10.82C127.131 11.1267 126.738 11.58 126.431 12.18C126.138 12.78 125.991 13.5267 125.991 14.42V20H123.851V8.8Z" fill="black"/>
</svg>
